<svg width="58" height="58" viewBox="0 0 58 58" fill="none" xmlns="http://www.w3.org/2000/svg">
<g clip-path="url(#clip0_536_2196)">
<mask id="mask0_536_2196" style="mask-type:luminance" maskUnits="userSpaceOnUse" x="0" y="0" width="58" height="58">
<path d="M57.8264 1.85155L1.85156 0.173828L0.173842 56.1487L56.1487 57.8264L57.8264 1.85155Z" fill="white"/>
</mask>
<g mask="url(#mask0_536_2196)">
<path d="M23.7422 12.6366C21.88 10.9426 19.5401 9.85704 17.0578 9.52077C15.4802 11.5695 14.5721 14.079 14.4864 16.6799C16.5382 17.1379 18.5276 17.9341 20.3632 19.0689C21.076 16.6947 22.2363 14.5198 23.7422 12.6366Z" fill="#FDDF7F"/>
<path d="M44.224 17.5716C44.2943 14.9702 43.5383 12.4109 42.0861 10.2713C39.5882 10.4583 37.1875 11.4018 35.2271 12.9812C36.6174 14.9512 37.6455 17.1917 38.2147 19.6044C40.115 18.5816 42.1484 17.9059 44.224 17.5716Z" fill="#FDDF7F"/>
<path d="M56.0982 40.7982C54.2419 38.7353 51.1965 37.1018 47.5224 36.2583C47.4452 36.3334 47.3699 36.4096 47.2913 36.4836C42.1287 41.3457 34.9815 42.7811 28.6433 40.8847C22.203 42.3981 15.1544 40.5372 10.2924 35.3746C10.2183 35.296 10.1475 35.2157 10.0752 35.1361C6.35697 35.7579 3.2193 37.206 1.24284 39.154C3.23227 41.3648 6.58672 43.0837 10.6182 43.8641L10.6186 43.8636C8.45375 46.0025 7.85584 48.5893 8.84181 51.0218C12.8729 51.7978 17.2811 51.5867 21.006 50.356C21.9923 52.8823 24.6212 55.0605 28.1774 56.4279C31.8093 55.2759 34.5638 53.2591 35.6995 50.7964C39.3442 52.248 43.7318 52.7228 47.8022 52.1895C48.9321 49.8204 48.49 47.2028 46.4575 44.9383C50.5285 44.4007 53.98 42.8858 56.0982 40.7982Z" fill="#83E1E5"/>
<path d="M52.8021 18.1322C47.999 16.6949 42.7318 17.1732 38.2151 19.6041C37.0374 14.6119 33.9003 10.3538 29.6383 7.71371C25.2256 10.0937 21.8394 14.1564 20.3646 19.069C16.0016 16.3719 10.7727 15.5791 5.89202 16.7261C3.99553 23.0642 5.43101 30.2116 10.2931 35.3742C15.1552 40.5367 22.2037 42.3979 28.6441 40.8842C34.9822 42.7807 42.1295 41.3452 47.292 36.4831C52.4545 31.6211 54.3155 24.5724 52.8021 18.1322Z" fill="#ECF4F7"/>
<path d="M27.9968 2.74748C28.0061 2.43838 28.2642 2.19524 28.5733 2.20451L29.2422 2.22455L29.2623 1.55565C29.2716 1.24656 29.5297 1.00342 29.8388 1.01268C30.148 1.02195 30.3911 1.28012 30.3818 1.58921L30.3617 2.25811L31.0306 2.27816C31.3398 2.28742 31.5829 2.54559 31.5736 2.85468C31.5644 3.16378 31.3062 3.40692 30.9971 3.39765L30.3282 3.37761L30.3081 4.04651C30.2989 4.35559 30.0407 4.59874 29.7316 4.58948C29.4225 4.58021 29.1794 4.32203 29.1886 4.01295L29.2087 3.34405L28.5398 3.324C28.2307 3.31474 27.9876 3.05657 27.9968 2.74748ZM47.4193 12.8567L48.0882 12.8767L48.0681 13.5456C48.0588 13.8547 48.3019 14.1129 48.6111 14.1222C48.9205 14.1314 49.1783 13.8883 49.1876 13.5792L49.2077 12.9103L49.8766 12.9303C50.1859 12.9396 50.4438 12.6965 50.4531 12.3874C50.4623 12.0783 50.2195 11.8201 49.9101 11.8109L49.2412 11.7908L49.2613 11.1219C49.2705 10.8128 49.0277 10.5547 48.7183 10.5454C48.4092 10.5361 48.151 10.7793 48.1418 11.0883L48.1217 11.7572L47.4528 11.7372C47.1437 11.7279 46.8856 11.9711 46.8763 12.2802C46.867 12.5893 47.1104 12.8474 47.4193 12.8567ZM9.12314 11.7089L9.79204 11.7289L9.77199 12.3978C9.76273 12.7069 10.0058 12.9651 10.315 12.9743C10.6242 12.9836 10.8822 12.7404 10.8915 12.4314L10.9115 11.7625L11.5804 11.7825C11.8896 11.7918 12.1477 11.5486 12.157 11.2395C12.1662 10.9305 11.9232 10.6723 11.614 10.663L10.9451 10.643L10.9651 9.97406C10.9744 9.66498 10.7314 9.4068 10.4222 9.39754C10.113 9.38827 9.85491 9.63143 9.84564 9.94051L9.82559 10.6094L9.15669 10.5894C8.84748 10.5801 8.58943 10.8232 8.58017 11.1323C8.5709 11.4414 8.81406 11.6996 9.12314 11.7089ZM56.5151 40.4235C55.1123 38.8647 53.07 37.545 50.6093 36.6071C50.32 36.4971 49.9968 36.6423 49.8865 36.9311C49.7765 37.2201 49.9214 37.5435 50.2104 37.6538C52.2892 38.446 54.0368 39.5188 55.3023 40.7742C53.2805 42.5508 50.1826 43.8343 46.6703 44.343C46.4696 44.132 46.2566 43.9247 46.0339 43.7242L46.0208 43.7126C45.9245 43.6262 45.826 43.5403 45.7252 43.4555L45.6846 43.4225C45.5917 43.3448 45.4973 43.2673 45.4 43.1908C45.3823 43.1768 45.3642 43.163 45.3457 43.1492L45.3139 43.1248C45.23 43.0597 45.1459 42.995 45.0587 42.9305C45.0225 42.904 44.9851 42.8777 44.9482 42.8513L44.8438 42.7766C44.7961 42.7424 44.7485 42.7081 44.6999 42.6743C44.5771 42.5894 44.4516 42.5054 44.3232 42.4223C44.0636 42.2544 43.7168 42.3285 43.5486 42.5881C43.3806 42.8476 43.4548 43.1944 43.7146 43.3624C43.8333 43.4393 43.9494 43.5171 44.0634 43.5959C44.106 43.6255 44.1474 43.6552 44.1888 43.685L44.3012 43.7655C44.3324 43.7876 44.3636 43.8097 44.394 43.832C44.474 43.8906 44.5509 43.9505 44.6275 44.0098L44.7072 44.0705C44.7957 44.1404 44.882 44.2108 44.9667 44.2818L45.004 44.3122C45.0959 44.3896 45.1855 44.4676 45.2696 44.543L45.285 44.5567C45.5555 44.8001 45.8099 45.0542 46.0413 45.312C47.8257 47.2999 48.3094 49.5475 47.4207 51.6725C43.6867 52.1119 39.7336 51.6776 36.4331 50.4743C36.853 49.278 36.9234 47.9482 36.6249 46.668C36.3564 45.5155 35.7922 44.4385 34.9937 43.553C34.7866 43.3232 34.4327 43.305 34.2029 43.5122C33.9734 43.7193 33.9549 44.0735 34.1621 44.303C34.834 45.0482 35.3086 45.9537 35.5342 46.9223C35.8235 48.1633 35.7017 49.4559 35.1916 50.5616C34.1615 52.7946 31.6176 54.7091 28.1959 55.8335C26.925 55.3298 25.7823 54.7208 24.7966 54.0213C23.5346 53.1255 22.5777 52.1202 21.9527 51.0334C21.1467 49.6318 20.9426 48.0588 21.3783 46.604C21.6648 45.6471 22.2173 44.7243 22.9763 43.9354C23.1907 43.7126 23.1839 43.3579 22.9611 43.1435C22.7379 42.929 22.3835 42.9359 22.1692 43.159C21.2871 44.0758 20.6426 45.1558 20.3052 46.2828C19.9428 47.493 19.9457 48.7666 20.2984 49.9894C16.9306 50.9939 12.9568 51.1909 9.25458 50.5285C8.49461 48.3539 9.11227 46.1393 11.0127 44.2619C11.2584 44.0191 11.5274 43.7807 11.8117 43.5539C11.8144 43.552 11.8234 43.5451 11.826 43.5429C11.9178 43.47 12.0115 43.3977 12.1079 43.326L12.1465 43.2981C12.2354 43.2322 12.3257 43.1672 12.4184 43.1028L12.5009 43.0472C12.5815 42.9923 12.662 42.9374 12.745 42.8834C12.7767 42.8629 12.8094 42.8428 12.8419 42.8226L12.959 42.7489C13.002 42.7217 13.045 42.6945 13.0897 42.6673C13.2078 42.5957 13.3284 42.5252 13.4515 42.4553C13.7207 42.3032 13.8155 41.9615 13.6635 41.6923C13.5112 41.4232 13.1697 41.3284 12.9004 41.4805C12.7673 41.5557 12.6369 41.632 12.5095 41.7092C12.4586 41.7403 12.4091 41.7714 12.3595 41.8027L12.2509 41.871C12.2123 41.8951 12.1736 41.9192 12.1356 41.9437C12.045 42.0026 11.9571 42.0624 11.869 42.1227L11.8362 42.1446C11.8171 42.1573 11.7981 42.1702 11.7797 42.1829C11.678 42.2534 11.579 42.3251 11.4815 42.397L11.4393 42.4276C11.3335 42.5062 11.2304 42.5859 11.131 42.6649C11.1282 42.6671 11.1173 42.6757 11.1144 42.6779C10.88 42.8649 10.655 43.0588 10.4425 43.2572C6.96698 42.539 3.95151 41.0722 2.03969 39.1776C3.38482 37.994 5.20366 37.0243 7.33781 36.3573C7.63292 36.2651 7.79753 35.9509 7.7053 35.6558C7.61319 35.361 7.29945 35.196 7.00377 35.2885C4.47883 36.0773 2.35104 37.2762 0.850394 38.7551C0.637133 38.9654 0.626922 39.3061 0.827211 39.5285C2.77596 41.694 5.84891 43.3362 9.54971 44.2068C7.80768 46.3304 7.35593 48.8446 8.32364 51.232C8.3949 51.4078 8.5503 51.5358 8.73668 51.5716C10.085 51.8311 11.4717 51.9806 12.8579 52.0222C15.5719 52.1035 18.2836 51.771 20.6967 51.0411C20.7838 51.2268 20.8778 51.4107 20.9819 51.5918C21.6882 52.8201 22.7535 53.9448 24.1485 54.9347C25.2575 55.7219 26.5456 56.4 27.9773 56.9502C28.0365 56.9731 28.0988 56.9854 28.1614 56.9873C28.224 56.9892 28.2869 56.9806 28.3475 56.9613C31.9277 55.8259 34.671 53.8527 35.971 51.4997C38.3356 52.3722 41.0212 52.866 43.7347 52.9474C45.1208 52.9889 46.5143 52.923 47.8754 52.7445C48.0636 52.7198 48.2266 52.6017 48.3081 52.4305C49.4171 50.105 49.1165 47.5678 47.5044 45.3434C51.211 44.6964 54.449 43.2102 56.4919 41.197C56.705 40.9869 56.7152 40.646 56.5151 40.4235ZM19.1193 26.8157C19.1509 27.096 19.3843 27.3044 19.6582 27.3126C19.6845 27.3134 19.7115 27.3122 19.7386 27.3092C20.0458 27.2746 20.2669 26.9973 20.2321 26.6899C20.2159 26.5465 20.2014 26.4027 20.1886 26.2582C20.1612 25.9503 19.8901 25.7228 19.581 25.7502C19.273 25.7777 19.0455 26.0496 19.0729 26.3577C19.0867 26.5109 19.1021 26.6634 19.1193 26.8157ZM5.01153 26.6149C4.26136 23.2993 4.38019 19.8243 5.3552 16.5659C5.41273 16.3739 5.5685 16.2271 5.76362 16.1813C8.46457 15.5466 11.2699 15.5011 13.9683 16.01C14.1775 13.5457 15.1038 11.1421 16.615 9.17967C16.7372 9.02086 16.935 8.93926 17.1338 8.96641C19.5573 9.29475 21.8067 10.2851 23.6759 11.8387C25.2669 9.96596 27.1994 8.39309 29.3721 7.22131C29.5484 7.12618 29.7623 7.13259 29.9326 7.23811C32.0313 8.53792 33.866 10.2237 35.3419 12.1884C37.3011 10.7495 39.6057 9.89566 42.0444 9.71305C42.244 9.69784 42.437 9.79116 42.5495 9.957C43.9404 12.0064 44.7212 14.4612 44.7823 16.9336C47.5063 16.5872 50.304 16.8006 52.962 17.5961C53.1541 17.6535 53.3009 17.8094 53.3468 18.0045C54.1248 21.3155 54.0354 24.7913 53.088 28.0561C52.1114 31.4209 50.2397 34.4763 47.6755 36.8913C45.1113 39.3063 41.9493 40.9916 38.532 41.7647C36.9016 42.1337 35.2326 42.2925 33.5702 42.2427C31.9006 42.1926 30.2382 41.9304 28.6262 41.4614C26.9896 41.833 25.3139 41.9952 23.6446 41.9452C21.9817 41.8953 20.3258 41.6369 18.7203 41.1708C15.3553 40.1945 12.3001 38.3228 9.88506 35.7586C7.47005 33.1944 5.78477 30.0324 5.01153 26.6149ZM38.8532 19.9028C39.1797 21.4393 39.3252 23.0173 39.2777 24.6032C39.1721 28.1241 38.1282 31.5514 36.2583 34.5148C34.6889 37.0022 32.5743 39.1128 30.0942 40.6826C36.0796 42.0135 42.416 40.306 46.9079 36.076C51.6446 31.6148 53.7051 24.9371 52.3282 18.5784C47.8492 17.3248 42.9802 17.8045 38.8532 19.9028ZM35.9891 13.1024C36.2974 13.5651 36.5885 14.0399 36.8573 14.5285C37.6002 15.8785 38.1777 17.3088 38.5833 18.7869C40.1954 17.9951 41.9095 17.4336 43.6678 17.1084C43.6413 14.9082 42.9881 12.716 41.8025 10.8587C39.6885 11.0748 37.6948 11.8455 35.9891 13.1024ZM15.0709 16.2514C16.8064 16.6813 18.4838 17.3444 20.0456 18.2314C20.539 16.7802 21.2012 15.3871 22.0235 14.0839C22.321 13.6124 22.64 13.1558 22.9754 12.7124C21.348 11.3557 19.4042 10.4668 17.3069 10.1246C16.0124 11.9076 15.2289 14.0567 15.0709 16.2514ZM10.7004 34.9908C14.9309 39.4824 21.1537 41.5664 27.2082 40.5961C23.2014 37.7081 20.3817 33.3863 19.393 28.5469C19.331 28.244 19.5265 27.9481 19.8295 27.8861C20.1332 27.8242 20.4284 28.02 20.4903 28.3228C21.4874 33.203 24.4586 37.5265 28.6632 40.2345C34.3341 37.0455 37.9632 31.0735 38.1582 24.5696C38.3531 18.0658 35.0882 11.887 29.6185 8.36419C23.9475 11.5531 20.3184 17.5252 20.1235 24.0291C20.1142 24.3382 19.8562 24.5813 19.547 24.572C19.2378 24.5628 18.9947 24.3046 19.004 23.9955C19.0516 22.4095 19.2912 20.8431 19.7093 19.329C15.7153 16.9873 10.884 16.2169 6.3376 17.2C4.58247 23.4648 6.23935 30.2538 10.7004 34.9908Z" fill="#1C1D21"/>
</g>
</g>
<defs>
<clipPath id="clip0_536_2196">
<rect width="56" height="56" fill="white" transform="translate(1.85156 0.173828) rotate(1.7168)"/>
</clipPath>
</defs>
</svg>
