<svg width="80" height="79" viewBox="0 0 80 79" fill="none" xmlns="http://www.w3.org/2000/svg">
<g clip-path="url(#clip0_535_2177)">
<path d="M62.4766 61.4535C60.6129 58.8628 56.9823 56.6983 52.5134 55.7193C52.6308 56.1428 52.6658 56.5964 52.601 57.0594L52.5351 57.5295C52.2819 59.3382 50.6104 60.5991 48.8017 60.3459L39.2774 59.0124L39.2719 59.0116L35.5025 58.4839L35.497 58.4831L25.9726 57.1496C24.164 56.8964 22.903 55.2249 23.1562 53.4161L23.222 52.946C23.2869 52.4831 23.4451 52.0563 23.6742 51.6815C19.1084 51.3955 15.0229 52.4796 12.5194 54.459C14.1158 56.6783 17.0086 58.5845 20.6142 59.7013C20.6142 59.7011 20.6143 59.701 20.6145 59.7009C18.4224 61.4384 17.617 63.7421 18.2743 66.0635C21.8799 67.1761 25.9288 67.4246 29.4555 66.6731C30.1038 69.0801 32.2878 71.3336 35.4002 72.9389C38.8338 72.2501 41.5525 70.683 42.8369 68.5466C46.0217 70.2378 49.9831 71.1109 53.7556 71.0312C55.025 68.9797 54.8834 66.5436 53.2532 64.2711C57.0268 64.1875 60.3321 63.149 62.4766 61.4535Z" fill="#83E1E5"/>
<path d="M40.4536 36.841C43.6587 37.2897 46.6207 35.0553 47.0694 31.8502C47.5182 28.6451 45.2837 25.6831 42.0787 25.2344C38.8736 24.7857 35.9116 27.0201 35.4629 30.2252C35.0141 33.4302 37.2486 36.3922 40.4536 36.841Z" fill="#FDDF7F"/>
<path d="M50.1672 20.2571L43.9336 11.9975L35.6712 18.2274C34.0917 19.4184 33.0502 21.1882 32.7759 23.1472L31.2243 34.229C30.877 36.7096 31.03 39.2347 31.6742 41.6553C32.3184 44.0759 32.4714 46.601 32.124 49.0816L31.8809 50.8184L44.8612 52.6357L45.1043 50.899C45.4516 48.4184 46.2921 46.0324 47.5764 43.8818C48.8606 41.7312 49.7012 39.3452 50.0485 36.8646L51.6001 25.7828C51.8743 23.8239 51.3589 21.8361 50.1672 20.2571ZM40.4553 36.8403C37.2503 36.3916 35.0158 33.4295 35.4646 30.2245C35.4646 30.2244 35.4646 30.2241 35.4646 30.224L36.2608 24.5372C36.4673 23.0622 37.1107 21.6829 38.1083 20.577L43.582 14.5082L47.1786 21.8469C47.8339 23.1843 48.0739 24.6873 47.8674 26.1623L47.0715 31.8471C47.0714 31.8479 47.0712 31.8487 47.0711 31.8497C46.6224 35.0546 43.6603 37.289 40.4553 36.8403Z" fill="#ECF4F7"/>
<path d="M50.1672 20.2578L43.9336 11.9982L35.6712 18.2281L38.1083 20.5776L43.582 14.5089L47.1786 21.8476L50.1672 20.2578Z" fill="#FDDF7F"/>
<path d="M48.8026 60.3457L25.9737 57.1494C24.165 56.8962 22.9041 55.2247 23.1573 53.4159L23.2231 52.9458C23.4764 51.1371 25.1478 49.8762 26.9566 50.1294L49.7855 53.3257C51.5942 53.5789 52.8551 55.2504 52.6019 57.0592L52.5361 57.5293C52.2828 59.338 50.6114 60.5989 48.8026 60.3457Z" fill="#AAB1BA"/>
<path d="M42.5879 52.3178L34.1523 51.1367L33.1695 58.1566L41.605 59.3376L42.5879 52.3178Z" fill="#FDDF7F"/>
<path d="M24.2881 42.9482C24.3413 42.5683 24.6925 42.3033 25.0726 42.3565L25.8948 42.4716L26.01 41.6493C26.0632 41.2694 26.4143 41.0044 26.7944 41.0576C27.1745 41.1108 27.4394 41.462 27.3862 41.842L27.271 42.6643L28.0933 42.7794C28.4734 42.8326 28.7383 43.1839 28.6851 43.5639C28.6319 43.9438 28.2807 44.2088 27.9006 44.1556L27.0784 44.0405L26.9632 44.8626C26.91 45.2426 26.5589 45.5076 26.1788 45.4544C25.7987 45.4012 25.5338 45.0499 25.587 44.6699L25.7022 43.8478L24.8799 43.7327C24.4998 43.6795 24.2349 43.3282 24.2881 42.9482ZM50.5169 47.3221L51.3392 47.4372L51.2241 48.2594C51.1709 48.6394 51.4357 48.9906 51.8158 49.0438C52.1959 49.097 52.5471 48.832 52.6003 48.4521L52.7154 47.6299L53.5377 47.7451C53.9178 47.7983 54.2689 47.5333 54.3221 47.1533C54.3753 46.7733 54.1104 46.4221 53.7303 46.3689L52.9081 46.2537L53.0232 45.4315C53.0764 45.0515 52.8115 44.7002 52.4314 44.647C52.0513 44.5938 51.7002 44.8588 51.647 45.2388L51.5319 46.061L50.7096 45.9459C50.3295 45.8927 49.9784 46.1577 49.9252 46.5377C49.872 46.9176 50.1368 47.2689 50.5169 47.3221ZM22.4684 53.3198L22.5342 52.8497C22.8401 50.6645 24.8668 49.1356 27.0521 49.4416L49.8811 52.6379C52.0664 52.9438 53.5952 54.9705 53.2893 57.1557L53.2235 57.6259C52.9175 59.811 50.8908 61.34 48.7056 61.034L25.8765 57.8377C23.6913 57.5318 22.1624 55.5051 22.4684 53.3198ZM49.6883 54.014L43.1796 53.1027L42.5667 57.48C42.5135 57.86 42.1624 58.125 41.7823 58.0718C41.4022 58.0185 41.1373 57.6673 41.1905 57.2873L41.3119 56.42L34.2527 55.4317L33.954 57.5655L48.8981 59.6578C50.3244 59.8575 51.6474 58.8596 51.8471 57.4332L51.913 56.963C52.1127 55.5368 51.1147 54.2137 49.6883 54.014ZM23.8446 53.5125C23.6448 54.9389 24.6429 56.2618 26.0692 56.4615L32.5779 57.3728L33.1981 52.9437C33.2513 52.5637 33.6024 52.2987 33.9825 52.3519C34.3626 52.4051 34.6275 52.7564 34.5743 53.1363L34.4455 54.0557L41.5047 55.044L41.8035 52.9102L26.8594 50.8179C25.4331 50.6182 24.1101 51.6161 23.9104 53.0425L23.8446 53.5125ZM63.0407 61.0477C61.4478 58.8333 58.704 56.9655 55.3142 55.7881C54.9525 55.6624 54.5558 55.854 54.4298 56.2165C54.304 56.579 54.4958 56.9749 54.8583 57.1008C57.6903 58.0844 60.0149 59.5665 61.4877 61.3145C59.5158 62.6374 56.6961 63.4422 53.5909 63.5635C53.4431 63.3731 53.2867 63.1843 53.1214 62.9991L53.1109 62.9876C53.0304 62.8975 52.9475 62.8079 52.8609 62.717L52.8281 62.6835C52.7496 62.6021 52.67 62.5209 52.5875 62.4398L52.5145 62.3701C52.4433 62.3012 52.3718 62.2324 52.298 62.1645C52.2653 62.1344 52.2316 62.1044 52.1978 62.0744L52.1145 61.9999C52.074 61.9634 52.0336 61.927 51.9912 61.8903C51.8862 61.7994 51.7787 61.709 51.6687 61.6192C51.3711 61.3766 50.9336 61.4213 50.6912 61.7187C50.4486 62.016 50.4931 62.4537 50.7906 62.6963C50.8901 62.7774 50.9871 62.8591 51.0814 62.9407C51.1163 62.971 51.1501 63.0016 51.1839 63.0321L51.2762 63.1147C51.303 63.1385 51.3299 63.1622 51.3562 63.1863C51.4221 63.2471 51.4856 63.3084 51.5495 63.3701L51.6142 63.4317C51.6871 63.5033 51.7575 63.5752 51.8264 63.6467L51.8571 63.678C51.932 63.7565 52.0046 63.8353 52.0755 63.9145L52.0853 63.9252C52.3046 64.1708 52.5076 64.4236 52.6889 64.6762C54.0529 66.5775 54.2821 68.575 53.3508 70.3414C50.0181 70.3515 46.5881 69.5971 43.776 68.2423C44.2389 67.1992 44.4153 66.0183 44.2742 64.8458C44.114 63.5155 43.5352 62.2315 42.6443 61.2303C42.3893 60.9437 41.9503 60.9179 41.6634 61.1731C41.3767 61.4282 41.351 61.8675 41.6061 62.1541C42.3103 62.9455 42.7677 63.9605 42.8944 65.0121C43.0299 66.1352 42.798 67.2635 42.2417 68.1889C41.1102 70.0705 38.6619 71.528 35.5026 72.2082C34.4283 71.6351 33.4766 70.9829 32.6711 70.2673C31.6274 69.3402 30.869 68.3469 30.417 67.3148C29.8409 65.9994 29.8125 64.5922 30.3367 63.3525C30.7474 62.3811 31.4678 61.5083 32.4198 60.8286C32.7321 60.6056 32.8044 60.1717 32.5816 59.8593C32.3586 59.5471 31.9247 59.4745 31.6124 59.6977C30.4514 60.5268 29.5677 61.6034 29.0569 62.8113C28.614 63.8587 28.4775 64.9934 28.6415 66.1218C25.5643 66.6534 22.0566 66.4369 18.8536 65.5115C18.4431 63.557 19.2124 61.6992 21.0463 60.2456C21.2905 60.0521 21.5549 59.865 21.8323 59.6897C21.8355 59.6877 21.8424 59.6836 21.8458 59.6815C21.9354 59.625 22.0267 59.5693 22.1288 59.5095L22.1573 59.4933C22.2437 59.443 22.3314 59.3932 22.4207 59.3446L22.5005 59.3026C22.5785 59.2611 22.6563 59.2195 22.7369 59.1791C22.7684 59.1631 22.8008 59.1477 22.8331 59.1323L22.9445 59.0783C22.9853 59.0582 23.0263 59.0383 23.0674 59.0189C23.1812 58.9661 23.2968 58.9142 23.4147 58.8637C23.7673 58.7124 23.9305 58.3038 23.7793 57.9512C23.6279 57.5985 23.2195 57.4356 22.8668 57.5867C22.736 57.6429 22.6079 57.7003 22.481 57.7591C22.4309 57.7826 22.3821 57.8065 22.3331 57.8305L22.2326 57.8793C22.1918 57.8988 22.1512 57.9182 22.1119 57.9381C22.0218 57.9835 21.9342 58.03 21.8473 58.0764L21.7572 58.1238C21.6559 58.1789 21.5571 58.2351 21.4477 58.2984L21.4166 58.3161C21.3105 58.3784 21.2067 58.4417 21.1114 58.5019C21.1079 58.5041 21.0934 58.5128 21.0899 58.5152C20.881 58.6471 20.6789 58.7858 20.4842 58.9283C17.5317 57.9589 15.0414 56.4105 13.5086 54.5971C15.4412 53.2952 18.1393 52.5048 21.1979 52.3562C21.5811 52.3376 21.8768 52.0118 21.8581 51.6285C21.8395 51.2452 21.5125 50.9496 21.1304 50.9681C17.478 51.1456 14.2672 52.1918 12.0887 53.9141C11.7972 54.1445 11.7386 54.5633 11.9555 54.8649C13.498 57.0091 16.0732 58.7992 19.2785 59.9799C17.5758 61.7613 16.9662 63.9935 17.6061 66.2529C17.6702 66.4796 17.8446 66.658 18.0696 66.7276C19.2844 67.1024 20.5454 67.3798 21.8174 67.5579C24.254 67.8991 26.7285 67.8742 28.985 67.4719C29.0342 67.606 29.0863 67.7396 29.1443 67.8723C29.6776 69.0896 30.5536 70.2449 31.7483 71.3062C32.6942 72.1466 33.8158 72.9037 35.082 73.5567C35.152 73.5929 35.2271 73.6164 35.3041 73.6272C35.381 73.638 35.4597 73.6358 35.537 73.6204C38.8975 72.9462 41.5989 71.44 43.0709 69.4443C45.13 70.4508 47.5021 71.154 49.9388 71.4952C51.2105 71.6732 52.4998 71.7529 53.7705 71.7261C54.006 71.721 54.2228 71.5973 54.3466 71.397C55.5823 69.4 55.6095 67.0863 54.4615 64.9057C57.8677 64.6509 60.8354 63.6368 62.9075 61.9985C63.199 61.7681 63.2577 61.3493 63.0407 61.0477ZM31.002 41.8348C30.3302 39.3112 30.1733 36.72 30.5354 34.1334L32.087 23.0516C32.389 20.8946 33.5129 18.9845 35.2519 17.6732L43.2846 11.6166L43.6924 8.70387C43.7456 8.3239 44.0967 8.0589 44.4768 8.11212C44.8569 8.16533 45.1218 8.51659 45.0686 8.89655L44.6608 11.8093L50.7209 19.8391C52.0329 21.5776 52.5892 23.7229 52.2872 25.8798L50.7356 36.9617C50.3735 39.548 49.511 41.9963 48.1719 44.2388C47.0453 46.1256 46.2793 48.1829 45.8954 50.3536C45.83 50.723 45.484 50.9723 45.1153 50.9207C45.1069 50.9196 45.0987 50.9183 45.0902 50.9168C44.7122 50.85 44.4602 50.4894 44.527 50.1115C44.9404 47.7742 45.7654 45.5586 46.9789 43.5264C48.2222 41.444 49.0232 39.1705 49.3594 36.769L50.911 25.6872C51.1341 24.0938 50.7912 22.5089 49.9452 21.1624L48.0722 22.1587C48.5825 23.4597 48.7499 24.864 48.5545 26.2592L47.7601 31.9331C47.7596 31.9377 47.759 31.9421 47.7584 31.9465C47.2573 35.5258 43.9375 38.0302 40.3582 37.529C36.7788 37.0279 34.2745 33.7081 34.7756 30.1288L35.5719 24.4415C35.7672 23.0464 36.3138 21.7421 37.1619 20.6311L35.6345 19.1588C34.4512 20.2211 33.6863 21.6509 33.4631 23.2444L31.9116 34.3263C31.5753 36.7281 31.721 39.1341 32.3448 41.4776C32.9535 43.7647 33.1382 46.1216 32.8937 48.4829C32.8542 48.8646 32.5127 49.1419 32.131 49.1025C31.7516 49.0627 31.472 48.7215 31.5114 48.3399C31.7385 46.1468 31.5671 43.9582 31.002 41.8348ZM40.5508 36.1528C40.6389 36.1652 40.7268 36.1752 40.8145 36.183C40.8412 36.1853 40.8679 36.1861 40.8947 36.1881C40.9554 36.1925 41.0162 36.1972 41.0767 36.1995C41.1098 36.2008 41.1427 36.2002 41.1757 36.2007C41.2295 36.2017 41.2832 36.2034 41.3366 36.2028C41.3825 36.2022 41.4278 36.1994 41.4733 36.1976C41.5137 36.196 41.5542 36.1956 41.5942 36.1931C41.6467 36.1898 41.6987 36.1842 41.7509 36.1793C41.7836 36.1761 41.8167 36.1743 41.8494 36.1706C41.8984 36.165 41.9469 36.1573 41.9958 36.1503C42.031 36.1452 42.0666 36.1412 42.1017 36.1356C42.1462 36.1282 42.19 36.1189 42.2343 36.1104C42.2729 36.103 42.312 36.0966 42.3503 36.0883C42.3948 36.0787 42.4386 36.0672 42.4826 36.0565C42.5201 36.0473 42.5579 36.0392 42.595 36.0293C42.6439 36.0162 42.692 36.0011 42.7403 35.9866C42.7721 35.9772 42.8042 35.9686 42.8356 35.9586C42.8856 35.9426 42.9347 35.9246 42.984 35.9071C43.0132 35.8967 43.0429 35.8874 43.0719 35.8765C43.1208 35.8582 43.1688 35.8378 43.217 35.8181C43.2457 35.8064 43.2748 35.7956 43.3033 35.7833C43.3503 35.7629 43.3965 35.7408 43.4429 35.7192C43.4716 35.7058 43.5009 35.6934 43.5294 35.6794C43.5755 35.6568 43.6206 35.6324 43.666 35.6086C43.6939 35.594 43.7224 35.5801 43.7499 35.565C43.7943 35.5407 43.8377 35.5143 43.8812 35.4887C43.9089 35.4724 43.9372 35.4571 43.9643 35.4403C44.0085 35.4132 44.0515 35.3843 44.0949 35.3559C44.1207 35.339 44.1469 35.323 44.1723 35.3057C44.2158 35.2761 44.2581 35.2447 44.3005 35.2139C44.3249 35.1962 44.3497 35.1794 44.3738 35.1613C44.4142 35.1309 44.4533 35.0987 44.4928 35.0672C44.5179 35.0472 44.5436 35.0279 44.5682 35.0075C44.6067 34.9755 44.6438 34.942 44.6812 34.9091C44.7057 34.8875 44.731 34.8667 44.7551 34.8446C44.7923 34.8106 44.8281 34.775 44.8643 34.7398C44.8875 34.7174 44.9113 34.6958 44.934 34.6728C44.9695 34.637 45.0036 34.5998 45.0383 34.563C45.0604 34.5394 45.0832 34.5165 45.1049 34.4925C45.1378 34.456 45.1693 34.418 45.2013 34.3806C45.2231 34.3549 45.2459 34.3299 45.2673 34.3037C45.2983 34.2658 45.3278 34.2266 45.3578 34.1879C45.3787 34.1609 45.4003 34.1346 45.4206 34.1071C45.4495 34.0681 45.4769 34.0277 45.5048 33.9877C45.5246 33.9592 45.5454 33.9315 45.5647 33.9025C45.591 33.8631 45.6158 33.8224 45.641 33.7823C45.6604 33.7516 45.6804 33.7217 45.6991 33.6907C45.7225 33.6514 45.7444 33.611 45.767 33.5711C45.7858 33.5378 45.8054 33.5052 45.8235 33.4714C45.8446 33.4318 45.8641 33.391 45.8843 33.3509C45.902 33.3158 45.9204 33.2811 45.9374 33.2454C45.9565 33.2049 45.974 33.1634 45.9921 33.1221C46.0083 33.0857 46.0252 33.0496 46.0405 33.0127C46.0575 32.9719 46.0726 32.93 46.0885 32.8884C46.1031 32.8502 46.1188 32.8124 46.1325 32.7736C46.1471 32.7329 46.1598 32.6911 46.1733 32.6498C46.1865 32.6093 46.2007 32.5693 46.213 32.5284C46.2252 32.4877 46.2356 32.4462 46.2468 32.4053C46.2585 32.3627 46.271 32.3206 46.2817 32.2774C46.2917 32.2369 46.2998 32.1953 46.3089 32.1544C46.3187 32.1099 46.3294 32.0659 46.3381 32.021C46.346 31.9801 46.352 31.9386 46.3589 31.8975C46.3667 31.8508 46.3754 31.8045 46.3821 31.7573C46.3824 31.7555 46.3827 31.7536 46.3829 31.7518L46.3833 31.749C46.775 28.9306 44.8024 26.3176 41.9837 25.9229C39.1632 25.528 36.5472 27.5014 36.1523 30.3219C35.7574 33.1425 37.7303 35.7579 40.5508 36.1528ZM46.9407 27.7642L47.1783 26.0665C47.3663 24.7238 47.1503 23.3706 46.5537 22.1533L43.4093 15.7368L38.6234 21.0428C37.7153 22.0497 37.1361 23.2916 36.9481 24.634L36.7104 26.3319C38.1124 24.9771 40.0999 24.2554 42.1759 24.5461C44.2517 24.8369 45.9645 26.0766 46.9407 27.7642ZM44.3883 13.7552L44.2989 14.3942L47.4856 20.8967L49.1214 20.0265L44.3883 13.7552ZM43.0121 13.5625L36.7387 18.293L38.0727 19.5788L42.9227 14.2015L43.0121 13.5625ZM44.6234 7.06552C45.0035 7.11874 45.3546 6.85373 45.4078 6.47376L45.5299 5.60166C45.5831 5.2217 45.3183 4.87044 44.9381 4.81722C44.558 4.76401 44.2069 5.02901 44.1537 5.40898L44.0316 6.28108C43.9784 6.66118 44.2433 7.0123 44.6234 7.06552Z" fill="#1C1D21"/>
</g>
<defs>
<clipPath id="clip0_535_2177">
<rect width="69.481" height="69.481" fill="white" transform="translate(10.5332) rotate(7.97018)"/>
</clipPath>
</defs>
</svg>
