<svg xmlns="http://www.w3.org/2000/svg" width="48" height="48" viewBox="0 0 48 48" fill="none">
    <path d="M23.7019 0.171875C17.4172 0.171875 11.3843 2.67057 6.9439 7.11393C2.49893 11.559 0.00123127 17.5875 0 23.8737C0 30.1573 2.4998 36.1902 6.9439 40.6335C11.3843 45.0769 17.4172 47.5756 23.7019 47.5756C29.9865 47.5756 36.0194 45.0769 40.4598 40.6335C44.9039 36.1902 47.4037 30.1573 47.4037 23.8737C47.4037 17.5901 44.9039 11.5573 40.4598 7.11393C36.0194 2.67057 29.9865 0.171875 23.7019 0.171875Z" fill="url(#paint0_linear_234_1150)"/>
    <path d="M10.7291 23.6228C17.6397 20.6126 22.2467 18.628 24.5503 17.6692C31.1349 14.9312 32.5015 14.4557 33.394 14.4396C33.5903 14.4364 34.0273 14.485 34.3125 14.7155C34.5495 14.9099 34.6162 15.1729 34.6495 15.3575C34.6791 15.5419 34.7199 15.9623 34.6865 16.2904C34.331 20.0382 32.7867 29.1331 32.0015 33.3309C31.6719 35.1071 31.0164 35.7026 30.3832 35.7607C29.0055 35.8874 27.9611 34.8511 26.6279 33.9775C24.5429 32.6098 23.3652 31.7588 21.3394 30.4245C18.9989 28.8824 20.5173 28.0346 21.8505 26.6496C22.1986 26.287 28.2648 20.7708 28.3796 20.2704C28.3944 20.2078 28.4092 19.9745 28.2685 19.8516C28.1315 19.7283 27.9278 19.7705 27.7797 19.8038C27.5686 19.8512 24.2392 22.054 17.7804 26.4118C16.8361 27.0614 15.9806 27.378 15.2103 27.3614C14.3659 27.3432 12.7364 26.8829 11.5254 26.4896C10.044 26.007 8.86261 25.7519 8.9663 24.9323C9.01815 24.5057 9.60699 24.069 10.7291 23.6228Z" fill="white"/>
    <defs>
        <linearGradient id="paint0_linear_234_1150" x1="2370.19" y1="0.171875" x2="2370.19" y2="4740.54" gradientUnits="userSpaceOnUse">
            <stop stop-color="#2AABEE"/>
            <stop offset="1" stop-color="#229ED9"/>
        </linearGradient>
    </defs>
</svg>
