<svg xmlns="http://www.w3.org/2000/svg" width="1160" height="617" viewBox="0 0 1160 617" fill="none">
    <g filter="url(#filter0_b_523_1887)">
        <mask id="path-1-inside-1_523_1887" fill="white">
            <path fill-rule="evenodd" clip-rule="evenodd" d="M20 0C8.95431 0 0 8.95431 0 20V597C0 608.046 8.95428 617 20 617H639C650.046 617 659 608.046 659 597V368C659 356.954 667.954 348 679 348H1140C1151.05 348 1160 339.046 1160 328V20C1160 8.9543 1151.05 0 1140 0H20Z"/>
        </mask>
        <path fill-rule="evenodd" clip-rule="evenodd" d="M20 0C8.95431 0 0 8.95431 0 20V597C0 608.046 8.95428 617 20 617H639C650.046 617 659 608.046 659 597V368C659 356.954 667.954 348 679 348H1140C1151.05 348 1160 339.046 1160 328V20C1160 8.9543 1151.05 0 1140 0H20Z" fill="#D8D8D8" fill-opacity="0.25"/>
        <path d="M3 20C3 10.6112 10.6112 3 20 3V-3C7.29745 -3 -3 7.29745 -3 20H3ZM3 597V20H-3V597H3ZM20 614C10.6111 614 3 606.389 3 597H-3C-3 609.703 7.29742 620 20 620V614ZM639 614H20V620H639V614ZM662 597V368H656V597H662ZM662 368C662 358.611 669.611 351 679 351V345C666.297 345 656 355.297 656 368H662ZM679 351H1140V345H679V351ZM1157 20V328H1163V20H1157ZM1140 3C1149.39 3 1157 10.6112 1157 20H1163C1163 7.29746 1152.7 -3 1140 -3V3ZM20 3H1140V-3H20V3ZM1140 351C1152.7 351 1163 340.703 1163 328H1157C1157 337.389 1149.39 345 1140 345V351ZM639 620C651.703 620 662 609.703 662 597H656C656 606.389 648.389 614 639 614V620Z" fill="url(#paint0_linear_523_1887)" mask="url(#path-1-inside-1_523_1887)"/>
    </g>
    <defs>
        <filter id="filter0_b_523_1887" x="-20" y="-20" width="1200" height="657" filterUnits="userSpaceOnUse" color-interpolation-filters="sRGB">
            <feFlood flood-opacity="0" result="BackgroundImageFix"/>
            <feGaussianBlur in="BackgroundImageFix" stdDeviation="10"/>
            <feComposite in2="SourceAlpha" operator="in" result="effect1_backgroundBlur_523_1887"/>
            <feBlend mode="normal" in="SourceGraphic" in2="effect1_backgroundBlur_523_1887" result="shape"/>
        </filter>
        <linearGradient id="paint0_linear_523_1887" x1="4.32134e-06" y1="308.5" x2="1160" y2="308.5" gradientUnits="userSpaceOnUse">
            <stop stop-color="#C181FF"/>
            <stop offset="0.958333" stop-color="#D6ABFF"/>
        </linearGradient>
    </defs>
</svg>
