<svg width="17" height="21" viewBox="0 0 17 21" fill="none" xmlns="http://www.w3.org/2000/svg">
<g clip-path="url(#clip0_545_106)">
<path fill-rule="evenodd" clip-rule="evenodd" d="M8.55116 19.9277C8.94635 19.9277 16.0076 12.3831 16.0076 8.26503C16.0076 4.14695 12.6692 0.808594 8.55116 0.808594C4.43308 0.808594 1.09473 4.14695 1.09473 8.26503C1.09473 12.3831 8.15598 19.9277 8.55116 19.9277ZM8.55117 11.9945C10.639 11.9945 12.3316 10.3019 12.3316 8.21404C12.3316 6.12617 10.639 4.43362 8.55117 4.43362C6.46331 4.43362 4.77076 6.12617 4.77076 8.21404C4.77076 10.3019 6.46331 11.9945 8.55117 11.9945Z" fill="#C181FF"/>
<path fill-rule="evenodd" clip-rule="evenodd" d="M1.09473 8.26503C1.09473 12.3831 8.15598 19.9277 8.55116 19.9277V11.9945C6.4633 11.9944 4.77076 10.3019 4.77076 8.21404C4.77076 6.12618 6.4633 4.43363 8.55116 4.43362V0.808594C4.43308 0.808594 1.09473 4.14695 1.09473 8.26503Z" fill="#C181FF"/>
</g>
<defs>
<clipPath id="clip0_545_106">
<rect width="16" height="20" fill="white" transform="translate(0.989258 0.613281)"/>
</clipPath>
</defs>
</svg>
