<svg xmlns="http://www.w3.org/2000/svg" width="56" height="56" viewBox="0 0 56 56" fill="none">
    <g clip-path="url(#clip0_588_665)">
        <mask id="mask0_588_665" style="mask-type:luminance" maskUnits="userSpaceOnUse" x="0" y="0" width="56" height="56">
            <path d="M56 0H0V56H56V0Z" fill="white"/>
        </mask>
        <g mask="url(#mask0_588_665)">
            <path d="M22.2554 11.8018C20.3434 10.1644 17.972 9.14944 15.4807 8.8877C13.9652 10.9828 13.1327 13.5183 13.125 16.1207C15.1896 16.5169 17.2019 17.2532 19.0707 18.3326C19.7121 15.938 20.8067 13.7294 22.2554 11.8018Z" fill="#FDDF7F"/>
            <path d="M42.8744 16.1207C42.8668 13.5183 42.0344 10.9828 40.5189 8.8877C38.0276 9.14944 35.6563 10.1644 33.7441 11.8018C35.1928 13.7294 36.2876 15.938 36.9288 18.3326C38.7976 17.2533 40.8098 16.5169 42.8744 16.1207Z" fill="#FDDF7F"/>
            <path d="M55.4396 38.9811C53.5223 36.9748 50.4293 35.4333 46.7316 34.7002C46.6567 34.7776 46.5837 34.856 46.5073 34.9323C41.4928 39.9469 34.3917 41.5958 27.9996 39.8901C21.6075 41.5958 14.5064 39.9469 9.4918 34.9323C9.41541 34.856 9.34228 34.7778 9.26757 34.7005C5.56966 35.4333 2.47679 36.9748 0.55957 38.9811C2.61434 41.1313 6.01878 42.7489 10.0719 43.4082L10.0722 43.4077C7.97241 45.6105 7.45228 48.214 8.51068 50.6159C12.5632 51.2708 16.9631 50.9277 20.6495 49.586C21.711 52.0816 24.4039 54.18 27.9996 55.4403C31.5953 54.18 34.2881 52.0816 35.3496 49.586C39.0361 50.9277 43.436 51.2708 47.4886 50.6159C48.547 48.214 48.0267 45.6108 45.9272 43.4082C49.9803 42.7489 53.3849 41.1313 55.4396 38.9811Z" fill="#83E1E5"/>
            <path d="M51.4652 16.4239C46.6212 15.1312 41.3707 15.767 36.9289 18.3322C35.6022 13.3775 32.3389 9.21537 27.9997 6.7041C23.6603 9.21524 20.3973 13.3775 19.0703 18.3322C14.6286 15.7669 9.37823 15.1312 4.5341 16.4239C2.82834 22.816 4.47731 29.9172 9.49191 34.9317C14.5065 39.9463 21.6076 41.5955 27.9997 39.8895C34.3918 41.5952 41.4929 39.9463 46.5074 34.9317C51.522 29.9172 53.1709 22.816 51.4652 16.4239Z" fill="#ECF4F7"/>
            <path d="M26.2106 1.7892C26.2106 1.47997 26.4614 1.2292 26.7706 1.2292H27.4398V0.56C27.4398 0.250768 27.6906 0 27.9998 0C28.3091 0 28.5598 0.250768 28.5598 0.56V1.2292H29.229C29.5383 1.2292 29.789 1.47997 29.789 1.7892C29.789 2.09843 29.5383 2.3492 29.229 2.3492H28.5598V3.0184C28.5598 3.32762 28.3091 3.5784 27.9998 3.5784C27.6906 3.5784 27.4398 3.32762 27.4398 3.0184V2.3492H26.7706C26.4614 2.3492 26.2106 2.09843 26.2106 1.7892ZM45.9272 11.312H46.5964V11.9812C46.5964 12.2904 46.8471 12.5412 47.1564 12.5412C47.4659 12.5412 47.7164 12.2904 47.7164 11.9812V11.312H48.3856C48.6951 11.312 48.9456 11.0612 48.9456 10.752C48.9456 10.4428 48.6951 10.192 48.3856 10.192H47.7164V9.5228C47.7164 9.21358 47.4659 8.9628 47.1564 8.9628C46.8471 8.9628 46.5964 9.21358 46.5964 9.5228V10.192H45.9272C45.6179 10.192 45.3672 10.4428 45.3672 10.752C45.3672 11.0612 45.6182 11.312 45.9272 11.312ZM7.61389 11.312H8.28309V11.9812C8.28309 12.2904 8.53375 12.5412 8.84309 12.5412C9.15244 12.5412 9.40309 12.2904 9.40309 11.9812V11.312H10.0723C10.3816 11.312 10.6323 11.0612 10.6323 10.752C10.6323 10.4428 10.3816 10.192 10.0723 10.192H9.40309V9.5228C9.40309 9.21358 9.15244 8.9628 8.84309 8.9628C8.53375 8.9628 8.28309 9.21358 8.28309 9.5228V10.192H7.61389C7.30455 10.192 7.05389 10.4428 7.05389 10.752C7.05389 11.0612 7.30467 11.312 7.61389 11.312ZM55.8448 38.5939C54.3959 37.0779 52.315 35.8199 49.8274 34.9562C49.5349 34.8549 49.2162 35.0097 49.1146 35.3016C49.0133 35.5939 49.1678 35.9128 49.46 36.0144C51.5616 36.7439 53.3406 37.7639 54.6431 38.9808C52.6755 40.8171 49.6174 42.1929 46.1219 42.8067C45.915 42.6017 45.6958 42.4009 45.4672 42.2072L45.4538 42.196C45.355 42.1125 45.2539 42.0295 45.1506 41.9478L45.1091 41.916C45.0139 41.8412 44.9172 41.7666 44.8176 41.693C44.7996 41.6795 44.781 41.6663 44.7622 41.6531L44.7296 41.6296C44.6438 41.567 44.5578 41.5049 44.4687 41.4431C44.4318 41.4176 44.3936 41.3924 44.3559 41.3672L44.2492 41.2957C44.2006 41.2628 44.152 41.23 44.1024 41.1977C43.9771 41.1165 43.8491 41.0363 43.7183 40.9571C43.4538 40.797 43.1094 40.8815 42.949 41.146C42.7889 41.4105 42.8734 41.7549 43.1382 41.915C43.2591 41.9883 43.3774 42.0626 43.4938 42.138C43.5373 42.1662 43.5795 42.1947 43.6218 42.2232L43.7366 42.3004C43.7684 42.3215 43.8002 42.3426 43.8313 42.364C43.913 42.4203 43.9916 42.4778 44.07 42.5348L44.1515 42.5931C44.2421 42.6603 44.3304 42.728 44.4172 42.7965L44.4554 42.8257C44.5496 42.9003 44.6415 42.9757 44.7278 43.0485L44.7436 43.0617C45.0213 43.2969 45.2832 43.5433 45.5222 43.794C47.3654 45.7276 47.9162 47.9597 47.0915 50.1103C43.3723 50.6614 39.408 50.3458 36.073 49.2418C36.4568 48.0335 36.4874 46.7022 36.1506 45.4315C35.8477 44.2876 35.2516 43.2279 34.4268 42.3668C34.213 42.1433 33.8587 42.1357 33.6352 42.3497C33.412 42.5636 33.4041 42.9181 33.6182 43.1414C34.312 43.8661 34.8135 44.757 35.068 45.7184C35.3944 46.9501 35.3114 48.2458 34.8346 49.3663C33.8719 51.6292 31.3866 53.619 28.0001 54.8454C26.7146 54.3801 25.5542 53.8056 24.548 53.1359C23.2597 52.2783 22.2731 51.3021 21.6158 50.2345C20.7682 48.8577 20.5171 47.2915 20.909 45.8243C21.1667 44.8593 21.6913 43.9203 22.4264 43.1091C22.634 42.88 22.6165 42.5256 22.3874 42.3179C22.1579 42.1102 21.8039 42.1278 21.5963 42.3571C20.7421 43.3 20.1302 44.3988 19.8267 45.5354C19.5008 46.7559 19.5418 48.0289 19.931 49.2405C16.5948 50.3455 12.6287 50.6614 8.90828 50.1103C8.08351 47.9594 8.63455 45.7273 10.4779 43.7938C10.7162 43.5438 10.9779 43.2974 11.2553 43.0622C11.2579 43.0602 11.2668 43.0531 11.2692 43.0508C11.3588 42.9752 11.4504 42.9001 11.5445 42.8255L11.5823 42.7965C11.6692 42.728 11.7575 42.6603 11.8482 42.5931L11.929 42.5351C12.0079 42.4778 12.0867 42.4205 12.1681 42.364C12.1992 42.3426 12.2312 42.3215 12.2631 42.3004L12.3779 42.2232C12.4201 42.1947 12.4623 42.1662 12.5062 42.1377C12.6221 42.0626 12.7405 41.9885 12.8614 41.915C13.126 41.7549 13.2105 41.4105 13.0505 41.146C12.8902 40.8815 12.546 40.797 12.2814 40.9571C12.1506 41.0363 12.0225 41.1165 11.8976 41.1974C11.8476 41.23 11.799 41.2626 11.7504 41.2954L11.6439 41.3669C11.606 41.3921 11.5681 41.4173 11.5309 41.4431C11.4421 41.5047 11.3559 41.567 11.2697 41.6299L11.2376 41.6528C11.2188 41.666 11.2003 41.6795 11.1822 41.6928C11.0827 41.7663 10.9859 41.8409 10.8906 41.9157L10.8493 41.9476C10.746 42.0293 10.6453 42.112 10.5483 42.194C10.5455 42.1963 10.5349 42.2052 10.5321 42.2075C10.3033 42.4014 10.0843 42.602 9.87787 42.8067C6.38235 42.1929 3.32429 40.8171 1.35657 38.9806C2.66563 37.7572 4.4546 36.7335 6.56781 36.0029C6.86003 35.9019 7.01515 35.5829 6.91412 35.2907C6.81322 34.9987 6.49468 34.8432 6.20191 34.9445C3.70173 35.8087 1.61081 37.0707 0.155148 38.5939C-0.051716 38.8105 -0.051716 39.1514 0.155148 39.3677C2.1679 41.4739 5.28867 43.0233 9.01389 43.7826C7.33626 45.9574 6.96004 48.484 7.99884 50.8414C8.07533 51.015 8.2345 51.1382 8.42187 51.1685C9.7774 51.3874 11.1679 51.4953 12.5548 51.4953C15.27 51.4953 17.9704 51.0817 20.3606 50.2799C20.4532 50.4629 20.5527 50.6439 20.6622 50.8218C21.405 52.0283 22.5035 53.1206 23.9275 54.0683C25.0596 54.822 26.3674 55.4611 27.815 55.9682C27.8748 55.9893 27.9375 55.9997 28.0001 55.9997C28.0627 55.9997 28.1253 55.9893 28.1854 55.9682C31.7299 54.726 34.4128 52.6716 35.6418 50.2806C38.0315 51.0819 40.7307 51.4951 43.4454 51.4951C44.8322 51.4951 46.223 51.3874 47.5782 51.1682C47.7655 51.1379 47.9249 51.015 48.0012 50.8414C49.04 48.4838 48.6636 45.9567 46.9856 43.7816C50.6712 43.0238 53.8632 41.4413 55.8448 39.3677C56.0515 39.1514 56.0515 38.8103 55.8448 38.5939ZM18.0581 26.1125C18.0981 26.3918 18.3377 26.5931 18.6117 26.5931C18.6381 26.5931 18.6649 26.5911 18.6919 26.5873C18.998 26.5435 19.2107 26.2597 19.1667 25.9535C19.1462 25.8107 19.1274 25.6673 19.1103 25.5233C19.0736 25.2163 18.7959 24.9971 18.4877 25.0337C18.1807 25.0704 17.9615 25.3491 17.9981 25.6561C18.0165 25.8089 18.0364 25.9608 18.0581 26.1125ZM3.95071 26.3345C3.10154 23.0429 3.1162 19.5659 3.99316 16.2798C4.04491 16.0861 4.19621 15.9347 4.38987 15.8831C7.07059 15.1677 9.87327 15.0382 12.5857 15.4661C12.721 12.9966 13.5749 10.5663 15.0266 8.5595C15.144 8.3971 15.3393 8.30961 15.5388 8.33079C17.9711 8.58638 20.2491 9.5089 22.164 11.0058C23.6982 9.08623 25.5827 7.45617 27.7193 6.21982C27.8927 6.11945 28.1067 6.11945 28.2801 6.21982C30.4167 7.45617 32.3011 9.08623 33.8353 11.0058C35.7505 9.5089 38.0284 8.58638 40.4606 8.33079C40.6596 8.30961 40.8554 8.3971 40.9727 8.5595C42.4244 10.5663 43.2784 12.9966 43.4136 15.4661C46.126 15.0382 48.9288 15.1677 51.6094 15.8832C51.8031 15.9348 51.9546 16.0862 52.0063 16.2799C52.8832 19.5661 52.8979 23.043 52.0488 26.3348C51.1734 29.7273 49.3941 32.8374 46.9034 35.3281C44.4127 37.8188 41.3026 39.5981 37.91 40.4732C36.2914 40.8909 34.6279 41.0997 32.9647 41.0997C31.2944 41.0997 29.6248 40.8874 27.9996 40.4669C26.3748 40.8874 24.7048 41.0997 23.0347 41.0997C21.3711 41.0997 19.7081 40.8909 18.0894 40.4732C14.6967 39.5981 11.5868 37.8188 9.09599 35.3281C6.60523 32.8374 4.82599 29.7273 3.95071 26.3345ZM37.5761 18.6116C37.9485 20.1376 38.1412 21.7105 38.1412 23.2971C38.1412 26.8197 37.2004 30.2767 35.4201 33.2948C33.9259 35.828 31.8755 38.0011 29.4436 39.6444C35.4662 40.7955 41.7486 38.8989 46.1118 34.5362C50.7127 29.9351 52.5721 23.1987 51.0054 16.8841C46.4908 15.7652 41.6384 16.3905 37.5761 18.6116ZM34.5096 11.9C34.8316 12.3533 35.1368 12.8192 35.4201 13.2994C36.2031 14.6266 36.8231 16.039 37.2729 17.5043C38.8605 16.6645 40.5571 16.0519 42.3048 15.6742C42.2124 13.4757 41.4938 11.3042 40.2531 9.48314C38.1465 9.76248 36.1768 10.5926 34.5096 11.9ZM13.6951 15.6743C15.4427 16.0521 17.1392 16.6646 18.7269 17.5044C19.1765 16.0391 19.7967 14.6267 20.5796 13.2995C20.8628 12.8193 21.168 12.3534 21.49 11.9001C19.8227 10.5927 17.8532 9.76248 15.7465 9.48327C14.506 11.3043 13.7872 13.4758 13.6951 15.6743ZM9.88795 34.5362C14.2511 38.8991 20.5336 40.7957 26.5563 39.6444C22.4648 36.8778 19.5168 32.6424 18.3836 27.8348C18.3126 27.5339 18.4991 27.2323 18.8001 27.1613C19.1019 27.0903 19.4028 27.2771 19.4737 27.578C20.6165 32.426 23.7159 36.6586 27.9998 39.2395C33.5726 35.882 37.0212 29.804 37.0212 23.2971C37.0212 16.7904 33.5726 10.7121 27.9998 7.35481C22.4269 10.7121 18.9784 16.7904 18.9784 23.2971C18.9784 23.6063 18.7278 23.8571 18.4184 23.8571C18.1091 23.8571 17.8584 23.6063 17.8584 23.2971C17.8584 21.7104 18.0511 20.1375 18.4236 18.6116C14.3612 16.3905 9.50906 15.7652 4.99411 16.8841C3.42746 23.1987 5.28699 29.9351 9.88795 34.5362Z" fill="#1C1D21"/>
        </g>
    </g>
    <defs>
        <clipPath id="clip0_588_665">
            <rect width="56" height="56" fill="white"/>
        </clipPath>
    </defs>
</svg>
