<svg xmlns="http://www.w3.org/2000/svg" width="22" height="23" viewBox="0 0 22 23" fill="none">
    <path d="M20.9994 16.659V19.8075C21.0005 20.0998 20.9432 20.3891 20.831 20.657C20.7188 20.9248 20.5542 21.1652 20.3478 21.3628C20.1415 21.5604 19.8978 21.7108 19.6325 21.8045C19.3672 21.8981 19.0861 21.9329 18.8072 21.9066C15.7128 21.5557 12.7404 20.4521 10.1289 18.6845C7.69921 17.0732 5.63926 14.9232 4.09534 12.3874C2.39586 9.64942 1.33824 6.53212 1.00816 3.28806C0.983033 2.99783 1.01608 2.70532 1.1052 2.42916C1.19432 2.15299 1.33757 1.89922 1.52581 1.68399C1.71405 1.46877 1.94317 1.29681 2.19858 1.17907C2.45398 1.06133 2.73008 1.00038 3.0093 1.0001H6.02608C6.5141 0.995089 6.98722 1.17545 7.35725 1.50758C7.72727 1.8397 7.96896 2.30093 8.03727 2.80528C8.1646 3.81289 8.40074 4.80223 8.74118 5.75443C8.87648 6.13008 8.90576 6.53834 8.82556 6.93082C8.74536 7.32331 8.55903 7.68357 8.28867 7.96892L7.01156 9.30182C8.44308 11.9293 10.5276 14.1049 13.0451 15.5989L14.3222 14.2661C14.5956 13.9839 14.9408 13.7894 15.3169 13.7057C15.6929 13.622 16.0841 13.6526 16.444 13.7938C17.3564 14.1491 18.3043 14.3955 19.2698 14.5284C19.7582 14.6004 20.2044 14.8571 20.5233 15.25C20.8422 15.6428 21.0116 16.1443 20.9994 16.659Z" stroke="#232323" stroke-width="2" stroke-linecap="round" stroke-linejoin="round"/>
</svg>
